# xmcd CD database file
#
# Track frame offsets:
#	150
#	18402
#	44017
#
# Disc length: 834 seconds
#
# Revision: 0
# Processed by: cddbd v1.5.1PL0 Copyright (c) Steve Scherf et al.
# Submitted via: CDex 1.50Beta5
#
DISCID=20034003
DTITLE=Crystal Kay - Bye My Darling!
DYEAR=1900
DGENRE=Trip-Hop
TTITLE0=Bye My Darling!
TTITLE1=flowers
TTITLE2=未来の地図
EXTD=
EXTT0=
EXTT1=
EXTT2=
PLAYORDER=
